<svg height="260" viewBox="0 0 1013 260" width="1013" xmlns="http://www.w3.org/2000/svg"><g fill="#1d5caa" fill-rule="evenodd"><path d="m948.289018 192.309688c-36.076729 0-64.261193-30.533844-64.261193-64.007532 0-39.1282599 31.792556-65.8168833 64.261193-65.8168833 36.527216 0 64.712382 30.9861818 64.712382 64.9122083 0 33.700207-27.73398 64.912207-64.712382 64.912207zm.225593-115.5754283c-22.54813 0-48.702955 18.5465455-48.702955 51.3413763 0 28.723793 23.224211 49.984364 48.702955 49.984364 23.90099 0 48.702955-18.998883 48.702955-51.341377 0-32.5690126-27.508383-49.9843633-48.702955-49.9843633zm-104.396501-54.7342597h15.783831v167.369143h-15.783831zm-88.615464 170.309688c-36.076729 0-64.261193-30.533844-64.261193-64.007532 0-39.1282599 31.792556-65.8168833 64.261193-65.8168833 36.527915 0 64.712379 30.9861818 64.712379 64.9122083 0 33.700207-27.733977 64.912207-64.712379 64.912207zm.225593-115.5754283c-22.54813 0-48.702955 18.5465455-48.702955 51.3413763 0 28.723793 23.22421 49.984364 48.702955 49.984364 23.90099 0 48.703653-18.998883 48.703653-51.341377 0-32.5690126-27.508383-49.9843633-48.703653-49.9843633zm-144.756704 161.2629353c-17.587178 0-51.859861-6.785065-63.134625-45.460987h16.685505c4.058579 10.177948 16.234318 31.212 46.222828 31.212 20.744084 0 44.645074-11.987299 44.645074-46.139844v-10.856104h-.451186c-9.245124 17.64187-29.538022 25.557428-47.576387 25.557428-32.468636 0-64.487484-25.33161-64.487484-64.23335 0-39.3540783 32.018149-65.590364 64.487484-65.590364 11.274065 0 33.371009 3.3928831 47.576387 25.3316104h.451186v-22.165948h15.783831v104.2662856c0 13.344312 0 30.081507-11.274065 45.234468-15.558238 21.71361-43.968295 22.844805-48.928548 22.844805zm-3.608092-161.2629353c-27.95957 0-48.703654 23.7487793-48.703654 50.8890393 0 26.914441 20.744084 50.436701 48.703654 50.436701 32.69423 0 48.929246-29.402649 48.929246-50.436701 0-27.14026-21.19527-50.8890393-48.929246-50.8890393zm-102.594551 90.9219743h-.451186c-13.528598 20.355896-35.174356 24.652753-48.026874 24.652753-38.782449.000701-66.290832-29.628468-66.290832-65.138026 0-33.0213506 25.92993-64.6856883 66.290832-64.6856883 13.303005 0 34.949462 4.2975585 48.026874 24.8792728h.451186v-21.7129091h15.783831v123.7175066h-15.783831zm-48.47806-90.9219743c-27.057197 0-50.507001 19.6777403-50.507001 51.1155583 0 27.593299 20.292898 50.210883 50.507001 50.210883 26.606709 0 49.379734-21.486389 49.379734-50.436701 0-27.140961-20.969677-50.8897403-49.379734-50.8897403z"/><path d="m222 38.1522996v-38.1522996h112v260h-112v-38.1523c-23.531362 23.570138-56.062758 38.1523-92 38.1523-71.7970175 0-130-58.202983-130-130 0-71.7970175 58.2029825-130 130-130 35.937242 0 68.468638 14.5821623 92 38.1522996zm0 0v183.6954004c23.480637-23.519329 38-55.987925 38-91.8477 0-35.8597752-14.519363-68.3283715-38-91.8477004zm-92 143.8477004c28.718807 0 52-23.281193 52-52s-23.281193-52-52-52-52 23.281193-52 52 23.281193 52 52 52z"/></g></svg>